<svg xmlns="http://www.w3.org/2000/svg" viewBox="0 -1900 965 2048" role="img" aria-label="Spiral Art 48-point initial T — multitone">
<title>Spiral Art 48-point initial T — multitone</title>
<metadata>Copyright (c) 2026 Harold Lehmann; MIT. Layered vector interpretation of source tones; paper is transparent.</metadata>
<path class="fr-primary" fill="var(--fr-primary-color,currentColor)" fill-opacity="var(--fr-primary-opacity,1)" transform="scale(1,-1)" d="M90 1778C87 1772 88 1762 92 1757C105 1741 136 1654 216 1416C322 1099 336 1034 311 955C298 910 303 900 319 938C333 971 334 1068 322 1114C299 1201 288 1238 254 1345C210 1483 198 1542 203 1588C208 1630 226 1651 266 1660C304 1669 385 1669 397 1661C406 1655 407 1539 407 1017C407 665 403 320 399 248C391 104 380 66 339 36C326 27 315 15 315 12C315 8 443 7 599 8C846 10 883 11 883 21C883 30 871 34 839 37L795 40L816 69C831 91 837 110 839 144C842 175 839 193 833 199C827 206 825 200 830 170C833 139 831 126 816 98C792 53 761 35 695 31C631 26 590 42 567 79C540 121 536 251 536 972C537 1558 538 1652 548 1661C563 1672 667 1664 698 1648C752 1619 747 1541 681 1340C668 1300 647 1228 635 1180C596 1025 608 947 679 892C708 871 719 867 753 867C775 867 804 873 817 879C850 896 885 939 891 971C897 1001 885 1046 867 1064C853 1077 854 1067 868 1043C874 1032 878 1014 878 1001C879 967 852 914 830 904C819 899 811 893 811 890C811 879 769 876 733 884C689 893 663 913 641 953C628 979 625 998 625 1043C626 1097 635 1132 692 1317C724 1418 828 1682 859 1735C877 1768 879 1777 871 1782C865 1786 688 1789 477 1789C141 1789 93 1788 90 1778ZM127 1084C57 1054 51 929 119 879C142 863 202 853 231 860C244 864 234 866 202 866C163 867 149 871 128 887C102 907 79 953 79 986C79 1024 99 1055 135 1073C165 1087 174 1088 195 1081C226 1070 231 1071 213 1084C194 1099 159 1099 127 1084ZM761 1035C750 1023 750 1018 757 1008C762 1002 775 997 785 997C797 997 803 992 803 984C803 972 804 972 811 982C822 1000 820 1023 804 1037C786 1054 778 1053 761 1035ZM689 191C669 177 669 154 690 143C705 135 709 136 724 155C733 167 739 181 737 186C731 200 706 203 689 191ZM156 1009C145 996 148 957 159 953C164 953 177 959 189 969C208 985 211 991 204 1002C193 1020 168 1023 156 1009ZM698 275C689 274 681 268 681 264C681 261 676 258 671 258C656 258 625 223 630 210C633 203 634 203 634 212C635 218 647 232 663 242C685 257 700 261 734 261C757 260 767 260 768 262C768 263 763 266 753 270C730 280 726 280 698 275ZM253 1004C250 981 250 969 252 968C254 967 257 973 262 986C267 1000 268 1014 263 1023C257 1036 256 1033 253 1004ZM618 181C615 173 617 156 620 145C625 127 626 129 627 161C628 199 625 207 618 181ZM740 951C750 947 764 947 775 951C788 956 785 958 757 958C729 958 726 956 740 951ZM788 1103C798 1100 812 1097 818 1097C828 1096 828 1097 818 1103C812 1107 798 1110 788 1110H769L788 1103ZM672 92C681 91 696 91 706 92C715 94 708 95 689 95C670 95 662 94 672 92ZM691 1020C691 1001 692 993 694 1003C695 1012 695 1027 694 1037C692 1046 691 1039 691 1020ZM184 938C193 937 207 937 215 938C221 940 214 942 197 941C180 941 174 940 184 938ZM751 147C751 135 753 130 755 138C756 145 756 155 755 161C753 165 751 160 751 147ZM811 220C811 214 813 212 816 214C818 217 818 222 816 225C813 227 811 225 811 220ZM256 877C260 875 264 875 267 877C269 880 267 882 262 882C256 882 254 880 256 877Z"/>
<path class="fr-secondary" fill="var(--fr-secondary-color,currentColor)" fill-opacity="var(--fr-secondary-opacity,0.55)" transform="scale(1,-1)" d="M89 1792C77 1788 76 1762 86 1756C95 1750 151 1601 195 1462C203 1434 220 1385 231 1351C292 1180 315 1085 315 1020C315 949 298 912 248 885C226 872 170 873 144 886C105 905 91 927 88 975C85 1019 86 1020 116 1050C154 1088 185 1091 224 1059C244 1042 250 1032 250 1010C250 975 229 951 198 951C186 951 180 951 180 953C179 954 184 957 192 963C219 982 210 1027 178 1027C161 1027 140 1003 140 984C140 975 147 959 156 948C192 902 269 942 269 1009C269 1042 240 1082 206 1094C166 1110 116 1095 89 1060C60 1023 57 966 80 921C106 872 138 852 195 852C220 852 247 856 256 860C317 892 343 956 335 1049C329 1119 316 1171 259 1347C212 1488 199 1574 215 1616C227 1646 265 1660 337 1660H397L403 1574C410 1449 401 267 392 180C383 98 369 65 330 38C315 28 304 17 304 13C304 9 423 5 597 5L891 2L893 20C895 36 893 37 853 37C809 37 801 43 821 66C846 95 855 162 842 198C825 242 769 280 721 280C694 280 641 255 629 235C617 215 609 158 615 132C622 107 662 82 698 82C719 82 730 88 745 106C769 135 770 166 747 187C725 208 695 209 677 189C666 176 665 171 672 155C683 130 714 130 730 153C736 161 739 165 741 165C742 164 742 157 740 143C736 91 669 86 640 136C626 159 626 163 636 192C649 229 687 258 724 258C759 258 776 248 803 210C836 165 833 117 794 74C771 48 735 37 679 37C627 37 590 50 574 75C544 122 542 158 542 912C542 1314 544 1647 547 1651C554 1662 626 1662 670 1651C689 1647 709 1635 715 1627C728 1608 730 1518 720 1481C690 1384 648 1249 643 1233C639 1222 629 1182 619 1143C593 1029 606 950 663 893C706 850 790 848 840 889C875 917 894 954 894 995C894 1063 850 1110 780 1117C744 1120 740 1119 711 1090C685 1064 681 1055 681 1026C681 1001 686 986 702 967C719 947 728 943 756 942C794 942 807 951 820 990C827 1017 827 1021 811 1039C789 1062 779 1062 761 1043C741 1021 751 989 777 989C794 989 796 988 788 978C782 972 767 966 753 966C722 966 704 988 704 1026C704 1045 710 1058 728 1075C750 1095 756 1097 788 1093C814 1090 828 1082 847 1062C868 1039 871 1030 871 998C871 953 854 925 807 895C778 876 719 882 684 909C645 939 631 975 631 1046C631 1092 637 1124 653 1176C708 1348 729 1414 738 1435C743 1448 767 1507 791 1568C815 1629 846 1701 861 1728C875 1754 884 1779 881 1782C875 1789 104 1798 89 1792ZM90 1778C93 1788 141 1789 477 1789C688 1789 865 1786 871 1782C879 1777 877 1768 859 1735C828 1682 724 1418 692 1317C635 1132 626 1097 625 1043C625 998 628 979 641 953C663 913 689 893 733 884C769 876 811 879 811 890C811 893 819 899 830 904C852 914 879 967 878 1001C878 1014 874 1032 868 1043C854 1067 853 1077 867 1064C885 1046 897 1001 891 971C885 939 850 896 817 879C804 873 775 867 753 867C719 867 708 871 679 892C608 947 596 1025 635 1180C647 1228 668 1300 681 1340C747 1541 752 1619 698 1648C667 1664 563 1672 548 1661C538 1652 537 1558 536 972C536 251 540 121 567 79C590 42 631 26 695 31C761 35 792 53 816 98C831 126 833 139 830 170C825 200 827 206 833 199C839 193 842 175 839 144C837 110 831 91 816 69L795 40L839 37C871 34 883 30 883 21C883 11 846 10 599 8C443 7 315 8 315 12C315 15 326 27 339 36C380 66 391 104 399 248C403 320 407 665 407 1017C407 1539 406 1655 397 1661C385 1669 304 1669 266 1660C226 1651 208 1630 203 1588C198 1542 210 1483 254 1345C288 1238 299 1201 322 1114C334 1068 333 971 319 938C303 900 298 910 311 955C336 1034 322 1099 216 1416C136 1654 105 1741 92 1757C88 1762 87 1772 90 1778ZM127 1084C159 1099 194 1099 213 1084C231 1071 226 1070 195 1081C174 1088 165 1087 135 1073C99 1055 79 1024 79 986C79 953 102 907 128 887C149 871 163 867 202 866C234 866 244 864 231 860C202 853 142 863 119 879C51 929 57 1054 127 1084ZM761 1035C778 1053 786 1054 804 1037C820 1023 822 1000 811 982C804 972 803 972 803 984C803 992 797 997 785 997C775 997 762 1002 757 1008C750 1018 750 1023 761 1035ZM689 191C706 203 731 200 737 186C739 181 733 167 724 155C709 136 705 135 690 143C669 154 669 177 689 191ZM156 1009C168 1023 193 1020 204 1002C211 991 208 985 189 969C177 959 164 953 159 953C148 957 145 996 156 1009ZM698 275C726 280 730 280 753 270C763 266 768 263 768 262C767 260 757 260 734 261C700 261 685 257 663 242C647 232 635 218 634 212C634 203 633 203 630 210C625 223 656 258 671 258C676 258 681 261 681 264C681 268 689 274 698 275ZM253 1004C256 1033 257 1036 263 1023C268 1014 267 1000 262 986C257 973 254 967 252 968C250 969 250 981 253 1004ZM618 181C625 207 628 199 627 161C626 129 625 127 620 145C617 156 615 173 618 181ZM740 951C726 956 729 958 757 958C785 958 788 956 775 951C764 947 750 947 740 951ZM788 1103 769 1110H788C798 1110 812 1107 818 1103C828 1097 828 1096 818 1097C812 1097 798 1100 788 1103ZM672 92C662 94 670 95 689 95C708 95 715 94 706 92C696 91 681 91 672 92ZM691 1020C691 1039 692 1046 694 1037C695 1027 695 1012 694 1003C692 993 691 1001 691 1020ZM184 938C174 940 180 941 197 941C214 942 221 940 215 938C207 937 193 937 184 938ZM751 147C751 160 753 165 755 161C756 155 756 145 755 138C753 130 751 135 751 147ZM811 220C811 225 813 227 816 225C818 222 818 217 816 214C813 212 811 214 811 220ZM256 877C254 880 256 882 262 882C267 882 269 880 267 877C264 875 260 875 256 877Z"/>
<path class="fr-tertiary" fill="var(--fr-tertiary-color,currentColor)" fill-opacity="var(--fr-tertiary-opacity,0.25)" transform="scale(1,-1)" d="M269 1011C269 1013 269 1014 269 1015C269 1048 266 1055 242 1078C221 1098 208 1103 183 1103C139 1103 90 1078 76 1047C61 1017 60 960 73 930C96 877 125 856 185 847C213 844 229 847 256 859C312 885 338 938 337 1031C337 1061 333 1105 327 1130C312 1196 293 1265 285 1283C282 1291 274 1313 269 1332C263 1351 256 1370 254 1374C251 1379 247 1397 244 1416C240 1434 234 1454 230 1459C220 1472 208 1579 214 1608C221 1641 269 1661 340 1658L395 1656L400 1530C406 1340 400 360 391 238C388 179 380 118 375 103C363 70 335 37 319 37C304 37 288 7 301 2C307 0 443 -1 605 1L898 2L900 20C903 35 900 37 866 37C854 38 841 38 832 38C838 37 845 37 853 37C893 37 895 36 893 20L891 2L597 5C423 5 304 9 304 13C304 17 315 28 330 38C369 65 383 98 392 180C401 267 410 1449 403 1574L397 1660H337C265 1660 227 1646 215 1616C199 1574 212 1488 259 1347C316 1171 329 1119 335 1049C343 956 317 892 256 860C247 856 220 852 195 852C138 852 106 872 80 921C57 966 60 1023 89 1060C116 1095 166 1110 206 1094C239 1082 268 1044 269 1011ZM737 128C729 117 713 110 692 110C656 110 635 131 635 168C635 192 641 203 662 225C686 248 692 251 725 249C767 247 777 242 801 207C831 165 820 93 781 63C762 48 692 34 660 38C615 44 577 66 567 90C561 102 555 140 552 175C545 242 544 1565 549 1619C553 1649 554 1651 584 1655C629 1663 694 1646 712 1622C717 1616 720 1611 722 1605C720 1615 718 1623 715 1627C709 1635 689 1647 670 1651C626 1662 554 1662 547 1651C544 1647 542 1314 542 912C542 158 544 122 574 75C590 50 627 37 679 37C735 37 771 48 794 74C833 117 836 165 803 210C776 248 759 258 724 258C687 258 649 229 636 192C626 163 626 159 640 136C666 91 722 91 737 128ZM81 1791C76 1786 71 1779 71 1779C71 1777 81 1757 93 1732C106 1708 123 1664 132 1634C141 1604 152 1573 155 1565C175 1518 208 1412 212 1382C215 1363 221 1347 224 1347C231 1347 254 1291 254 1272C254 1264 260 1248 266 1235C279 1209 288 1168 305 1063C312 1024 314 1003 314 987C315 997 315 1008 315 1020C315 1085 292 1180 231 1351C220 1385 203 1434 195 1462C151 1601 95 1750 86 1756C76 1762 77 1788 89 1792C104 1798 875 1789 881 1782C884 1779 875 1754 861 1728C846 1701 815 1629 791 1568C790 1565 789 1563 788 1560C793 1567 802 1588 811 1610C820 1635 842 1682 858 1713C874 1744 887 1774 887 1779C887 1784 881 1789 874 1791C866 1793 706 1795 517 1797C329 1798 156 1799 133 1800C107 1800 87 1797 81 1791ZM823 1022C819 1042 805 1058 782 1058C765 1058 742 1036 742 1019C742 1004 757 989 774 989C791 989 792 977 775 971C751 962 735 967 720 988C701 1015 700 1030 717 1055C736 1084 768 1096 802 1085C844 1073 861 1051 866 1000C872 951 852 919 799 895C778 885 769 884 737 892C694 904 651 933 651 951C650 958 647 967 641 972C637 977 633 1004 633 1036C633 1078 640 1113 658 1172C672 1216 685 1261 686 1273C689 1285 693 1296 697 1299C701 1301 704 1311 704 1321C704 1331 707 1341 711 1344C715 1346 719 1355 719 1363C719 1371 722 1384 727 1392C730 1398 741 1427 750 1454C759 1481 769 1507 773 1510C777 1515 780 1525 780 1534C780 1537 780 1539 781 1542C760 1491 742 1446 738 1435C729 1414 708 1348 653 1176C637 1124 631 1092 631 1046C631 975 645 939 684 909C719 882 778 876 807 895C854 925 871 953 871 998C871 1030 868 1039 847 1062C828 1082 814 1090 788 1093C756 1097 750 1095 728 1075C710 1058 704 1045 704 1026C704 988 722 966 753 966C767 966 782 972 788 978C796 988 794 989 777 989C751 989 741 1021 761 1043C779 1062 789 1062 811 1039C817 1032 821 1027 823 1022ZM725 1579C725 1572 725 1563 724 1553C722 1526 718 1490 713 1473C708 1456 700 1424 694 1401C678 1341 673 1329 666 1340C663 1345 660 1339 660 1327C660 1315 656 1292 651 1275C635 1222 628 1192 623 1172C621 1161 617 1146 615 1138C606 1110 604 1093 604 1033C605 989 609 968 620 947C648 898 660 882 670 882C676 882 681 879 681 876C681 869 718 856 729 859C733 860 747 857 761 853C783 847 791 849 824 872C846 886 869 907 878 918C908 963 903 1042 869 1079C844 1107 815 1119 775 1119C768 1119 762 1119 756 1118C763 1118 770 1118 780 1117C850 1110 894 1063 894 995C894 954 875 917 840 889C790 848 706 850 663 893C606 950 593 1029 619 1143C629 1182 639 1222 643 1233C648 1249 690 1384 720 1481C726 1503 728 1545 725 1579ZM812 44C814 49 820 59 830 75C844 101 849 120 849 156C849 200 846 207 822 234C807 250 782 270 768 277C712 303 641 273 615 213C602 182 602 161 613 130C623 100 651 82 691 79C718 77 726 80 743 98C785 142 767 204 713 206C683 207 664 187 667 161C669 146 676 138 691 132C710 126 714 127 727 143C737 156 740 160 741 156C742 162 742 164 741 165C739 165 736 161 730 153C714 130 683 130 672 155C665 171 666 176 677 189C695 209 725 208 747 187C770 166 769 135 745 106C730 88 719 82 698 82C662 82 622 107 615 132C609 158 617 215 629 235C641 255 694 280 721 280C769 280 825 242 842 198C855 162 846 95 821 66C812 55 808 48 812 44ZM87 991C88 1012 93 1024 108 1040C151 1087 180 1091 220 1057C240 1039 247 1027 247 1009C247 983 222 953 201 951C230 952 250 976 250 1010C250 1032 244 1042 224 1059C185 1091 154 1088 116 1050C90 1024 86 1020 87 991ZM681 1020C682 992 686 980 698 966C719 941 743 933 775 939C808 945 826 980 824 1011C824 1005 822 999 820 990C807 951 794 942 756 942C728 943 719 947 702 967C687 984 682 998 681 1020ZM198 951C187 951 187 953 201 966C218 984 220 996 206 1015C201 1021 195 1025 187 1026C211 1018 216 980 192 963C184 957 179 954 180 953C180 951 186 951 198 951ZM741 1115C730 1111 721 1105 709 1095C682 1073 681 1069 681 1029C681 1028 681 1028 681 1027C681 1055 685 1064 711 1090C724 1103 732 1111 741 1115ZM312 972C311 968 309 964 308 960C291 911 253 881 203 876C221 876 238 879 248 885C285 905 304 931 312 972ZM201 928C215 928 230 930 236 934C250 945 261 964 266 987C257 954 229 931 201 928ZM155 882C153 885 144 891 133 896C111 906 94 935 89 967C93 925 107 904 144 886C147 884 151 883 155 882ZM151 1011C149 1009 147 1006 145 1004C133 986 132 981 141 966C146 956 155 943 162 938C166 935 172 933 178 931C170 934 162 940 156 948C147 959 140 975 140 984C140 993 144 1003 151 1011Z"/>
</svg>
