<svg xmlns="http://www.w3.org/2000/svg" viewBox="0 -1900 1928 2048" role="img" aria-label="Tiny sun rosette, minion border 1, composed strip">
<title>Tiny sun rosette, minion border 1, composed strip</title>
<metadata>Copyright (c) 2026 Harold Lehmann; MIT. Historical source: https://archive.org/details/ldpd_12198261_000/page/n114/mode/1up</metadata>
<path fill="currentColor" transform="scale(1,-1)" d="M1350 933c-2 -2 -1 -4 2 -9c2 -4 2 -5 0 -6c-1 -2 -1 -2 -2 0c-4 5 -8 8 -9 8c-4 -1 -3 -3 2 -7c3 -3 5 -5 5 -5c0 -2 -3 -2 -6 -1c-4 2 -8 2 -8 1c0 -2 2 -4 7 -4c6 -1 7 -3 2 -5c-1 -1 -4 -1 -4 -1c-3 0 -5 -3 -5 -4c1 -2 4 -2 8 0c4 2 6 3 6 1c0 -1 -2 -3 -4 -5c-3 -3 -4 -6 -4 -7c1 -4 4 -2 7 3c2 2 3 4 4 4c0 0 1 0 2 0c1 0 0 -7 -1 -8c-2 -1 -1 -5 0 -6c1 0 2 -1 3 0c2 0 2 2 2 8c1 7 4 5 6 -3c0 -1 1 -3 2 -4c1 0 2 0 3 1c1 2 1 3 -2 7c-1 3 -2 5 -2 5c2 1 4 0 7 -3c2 -3 4 -4 5 -4c3 1 2 3 -3 6c-2 2 -5 4 -5 5c0 2 4 1 8 0c3 -2 7 -1 7 1c0 1 -3 3 -6 3c-4 0 -7 1 -6 3c0 2 9 2 9 0c0 0 1 1 2 3c2 4 1 6 -2 5c-2 0 -4 -1 -5 -2c-3 -2 -4 -2 -6 0c-1 1 -1 1 1 3c1 1 4 3 5 4c2 1 2 2 2 4c0 4 -3 3 -7 -2c-2 -3 -4 -5 -5 -5c-1 0 -1 5 1 8c2 4 2 6 0 7c-1 1 -2 1 -3 -1c-2 -1 -2 -3 -2 -7c0 -5 -1 -7 -3 -6c0 1 -1 4 -2 8c-2 7 -3 9 -6 7ZM1363 913c3 -1 4 -4 4 -7c0 -1 -1 -3 -3 -5c-2 -3 -3 -3 -5 -3c-5 0 -10 4 -10 8c0 4 1 6 5 8c3 2 6 2 9 -1ZM614 931c-1 -1 -1 -3 1 -7c3 -5 4 -6 2 -7c-1 0 -3 1 -7 4c-2 3 -5 5 -5 4c-3 -1 -1 -4 3 -8c4 -3 5 -4 4 -5c-1 -1 -2 -1 -6 1c-6 2 -7 2 -7 -1c0 -2 3 -4 8 -4c7 0 6 -3 -1 -4c-5 -1 -8 -3 -7 -5c1 -2 4 -2 8 0c2 1 4 2 5 2c2 0 0 -3 -3 -6c-5 -5 -5 -5 -4 -7c1 -2 5 -1 7 2c2 4 3 6 5 5c1 0 1 -1 1 -4c-1 -2 -1 -4 -2 -5c-1 -2 -1 -3 1 -4c1 -2 2 -2 4 -1c2 1 2 1 1 4c-1 3 0 9 2 9c0 -1 1 -2 2 -3c2 -7 5 -11 7 -8c1 2 0 5 -2 8c-4 6 -1 6 4 1c4 -4 7 -5 7 -1c0 1 -1 3 -5 5c-4 2 -5 3 -3 4c2 1 5 0 7 -3c1 -1 1 -1 4 1c3 3 3 5 -3 5c-4 1 -8 3 -6 4c0 0 3 1 6 1c5 0 8 1 6 3v1c0 1 0 2 -1 3c-1 1 -2 0 -6 -2c-4 -2 -7 -2 -7 0c0 1 1 3 4 5c4 4 5 7 1 8c-1 0 -2 -1 -5 -5c-2 -3 -4 -5 -4 -5c-2 0 -2 1 -1 5c1 2 1 3 2 2c2 -2 4 0 2 2c0 1 -1 2 -1 4c0 1 -1 2 -2 3c-3 1 -5 -1 -5 -8c0 -5 0 -6 -2 -6c-1 0 -1 1 -3 6c0 4 -1 7 -2 8c-1 2 -3 1 -4 -1ZM629 912c3 -3 3 -7 1 -11c-4 -8 -18 -3 -16 6c1 4 2 5 5 6c3 2 7 1 10 -1ZM771 932c-1 -2 -1 -3 2 -8c2 -5 2 -6 0 -7c0 0 -3 1 -5 4c-3 3 -5 5 -6 5c0 0 -1 -1 -1 -2c-1 -1 1 -3 4 -6c4 -4 4 -5 4 -6c-1 -1 -3 -1 -6 1c-4 1 -5 2 -6 1c-1 -1 -1 -2 -1 -2c0 -1 6 -4 9 -4c1 0 3 0 3 -1c1 -2 -1 -3 -6 -3c-4 0 -7 -3 -6 -5c1 -2 4 -2 8 0c2 2 4 2 5 2c1 -1 1 -2 -3 -5c-3 -3 -4 -5 -4 -7c0 -3 0 -3 2 -3c1 0 3 1 5 4c1 3 3 5 4 5c1 0 1 -6 0 -9c-1 -2 -1 -2 0 -4c1 -1 4 -1 5 0c0 1 1 3 1 6c0 3 1 5 1 6c1 1 3 -3 3 -7c1 -4 4 -6 6 -4c2 2 2 4 -1 7c-3 4 -3 6 0 6c1 0 3 -2 4 -4c3 -3 5 -5 7 -3c1 1 -1 4 -5 6c-3 3 -5 5 -3 6c1 0 3 -1 6 -2c3 -1 4 -2 6 -1c1 2 1 4 0 4c-1 1 -4 1 -6 2c-3 0 -5 1 -5 1c0 2 4 3 8 3c2 0 3 1 4 3c1 1 1 2 0 3c-1 2 -4 1 -7 -1c-3 -2 -5 -2 -6 -1c-1 2 1 4 4 6c3 2 4 3 3 5c0 1 -1 2 -2 3c-1 0 -2 -2 -5 -5c-1 -2 -3 -4 -4 -4c-2 0 -2 3 0 7c2 4 1 8 -1 8c-2 0 -3 -2 -4 -8c0 -3 -1 -6 -1 -6c-1 -1 -2 1 -3 7c-1 4 -2 7 -3 7c-2 1 -2 1 -4 0ZM784 913c5 -3 6 -9 2 -13c-3 -3 -7 -3 -11 -1c-4 2 -6 6 -3 10c1 3 3 5 6 5c1 0 2 1 2 1c1 0 2 -1 4 -2ZM876 932c-2 0 -1 -3 2 -8c2 -4 2 -6 1 -6c-1 -2 -3 -1 -6 3c-2 2 -4 4 -5 4c-3 0 -2 -4 2 -7c6 -6 5 -8 -2 -5c-4 1 -5 2 -6 0c-2 -1 -2 -1 -1 -2c1 -1 3 -2 4 -2c4 0 7 -1 7 -2c0 -1 -1 -2 -5 -3c-5 -1 -6 -2 -6 -3c-1 -3 1 -4 5 -3c3 1 5 2 5 2c0 1 0 1 1 1c3 0 2 -2 -1 -6c-5 -4 -6 -8 -2 -8c1 0 3 1 4 4c5 7 8 6 5 -2c-1 -5 0 -8 3 -8c2 0 3 3 3 8c0 3 0 4 1 5c1 0 2 -2 5 -9c0 -1 1 -2 2 -2c3 0 4 2 1 7c-1 3 -2 5 -2 6c0 2 3 0 6 -4c4 -4 6 -4 6 -1c0 1 -4 5 -8 7c-2 0 -2 1 0 2c2 1 2 1 7 -1c3 -1 4 -2 5 -1c1 1 2 2 2 3c0 1 -3 3 -6 3c-3 0 -5 0 -6 1c0 2 2 3 6 3c4 0 7 2 7 5c0 3 -3 3 -8 0c-2 -1 -5 -2 -6 -2c-2 1 -1 4 2 6c2 1 4 3 5 4c1 0 1 1 1 2c0 1 -2 4 -3 4c-1 0 -3 -3 -5 -6c-2 -3 -4 -5 -4 -5c-2 0 -2 2 0 6c2 6 2 8 0 9c-2 2 -4 -1 -5 -7c0 -5 -1 -6 -2 -6c-1 0 -1 1 -2 4c-2 10 -3 12 -7 10ZM889 913c6 -4 5 -14 -2 -15c-4 -1 -8 0 -10 3c-2 4 -2 7 0 10c3 4 8 5 12 2ZM929 932c-1 -1 -2 -2 -2 -2c0 -1 1 -3 3 -6c5 -8 1 -10 -5 -3c-5 5 -7 6 -7 3c0 -2 6 -8 7 -8c1 0 1 -1 2 -2c1 -3 -1 -3 -7 -1c-4 1 -5 2 -6 1c-2 -2 1 -4 6 -5c3 -1 5 -2 5 -2c0 -2 -1 -2 -5 -3c-4 -1 -6 -2 -7 -3c-1 -2 0 -2 1 -3c1 -1 2 -1 6 1c2 1 5 2 6 2c2 0 1 -2 -1 -4c-3 -2 -6 -7 -6 -9c1 -2 4 -2 5 0c1 1 2 3 3 4c3 6 6 4 4 -4c-1 -4 -1 -7 2 -7c2 0 3 2 3 7c-1 8 3 9 5 1c1 -5 3 -7 5 -6c2 1 1 5 -1 8c-3 4 -3 4 -1 5c1 1 3 0 5 -3c3 -3 5 -4 6 -4c1 0 1 1 1 1c0 1 -3 4 -7 7c-2 2 -2 2 -1 3c1 1 2 1 3 1c8 -3 9 -3 10 -2c1 2 -1 4 -5 4c-3 1 -5 1 -6 2c-1 1 -1 1 0 2c1 1 4 1 6 1c4 0 6 2 6 5c0 3 0 3 -3 2c-1 0 -4 -1 -6 -3c-4 -2 -5 -2 -5 1c0 2 1 3 4 5c4 3 5 5 3 7c-1 2 -2 1 -7 -4c-5 -7 -7 -5 -4 3c3 5 3 5 1 7c-2 1 -2 1 -3 0c-2 -1 -2 -3 -2 -6c0 -5 -1 -7 -2 -7c-2 0 -2 0 -4 8c-1 6 -3 8 -5 6ZM943 912c3 -3 3 -6 2 -10c-2 -3 -4 -4 -9 -4c-4 0 -4 0 -6 3c-1 1 -2 4 -2 5c0 8 10 12 15 6ZM981 932c-2 -1 -1 -3 2 -8c5 -8 1 -10 -6 -3c-4 5 -6 6 -6 3c0 -2 1 -4 4 -6c4 -4 5 -5 4 -6c-1 -1 -2 -1 -6 1c-4 2 -5 2 -6 1c-2 -1 -2 -1 0 -3c1 -1 3 -2 5 -2c4 0 7 -1 6 -3c-1 -1 -3 -1 -6 -2c-6 -1 -8 -3 -6 -5c2 -1 2 -1 6 0c8 4 10 2 4 -3c-3 -3 -4 -5 -4 -7c0 -3 3 -3 7 2c3 5 5 6 5 1c-1 -9 -1 -9 1 -10c2 -2 4 1 4 6c-1 3 -1 5 0 5c2 2 3 1 5 -5c1 -4 3 -6 5 -5c2 1 1 4 -1 8c-2 2 -2 4 -2 5c1 1 3 1 7 -3c2 -3 4 -4 5 -4c2 1 1 3 -1 5c-2 1 -4 2 -5 4l-3 2l2 1c2 0 3 0 5 -1c4 -2 6 -2 8 0c0 2 0 2 -2 3c-1 0 -4 1 -6 1c-4 1 -5 1 -4 3c1 1 2 1 5 1c4 0 8 2 8 5c0 3 -3 3 -8 0c-4 -2 -5 -2 -6 -1c-1 2 0 4 4 6c4 3 5 6 3 7c-2 2 -4 1 -7 -4c-5 -7 -7 -5 -4 4c1 3 1 4 0 5c-1 2 -4 2 -4 0c-1 -12 -1 -12 -3 -12c-1 0 -2 2 -3 6c0 4 -1 7 -2 7c0 1 -4 2 -4 1ZM996 912c4 -3 4 -8 0 -12c-4 -3 -8 -3 -12 0c-4 3 -5 7 -3 10c2 4 4 5 8 5c3 0 4 -1 7 -3ZM1033 932c0 -1 1 -4 2 -7c1 -3 2 -5 2 -6c0 -3 -2 -2 -6 2c-5 5 -7 6 -7 3c0 -2 2 -4 6 -8c2 -2 3 -3 2 -3c-1 -1 -2 -1 -6 0c-6 2 -8 2 -8 0c0 -2 3 -4 7 -4c8 0 8 -4 1 -5c-6 0 -8 -2 -8 -4c1 -2 4 -2 7 0c2 0 4 1 5 2c3 1 2 -2 -2 -7c-4 -4 -4 -8 -1 -8c1 0 2 1 4 4c3 4 5 6 6 4c0 -1 0 -5 -2 -10c0 -1 0 -2 1 -3c4 -2 5 0 5 6c0 4 0 6 1 6c2 1 4 0 4 -5c1 -6 4 -7 6 -5c1 2 1 3 -1 6c-2 3 -3 5 -3 6c0 2 4 0 7 -3c3 -4 5 -5 6 -2c1 1 -1 2 -4 4c-2 2 -4 4 -4 4c0 2 3 2 7 1c4 -2 7 -2 7 1c0 2 -2 3 -5 3c-2 0 -4 0 -5 1c-4 1 -2 3 3 4c6 1 7 2 7 4c0 3 -2 3 -8 1c-4 -2 -5 -3 -5 -2c-2 2 -1 3 3 6c3 2 4 3 4 5c0 4 -3 5 -5 1c-1 -1 -3 -3 -3 -5c-1 -1 -2 -2 -3 -2c-2 -1 -2 2 0 8c1 5 1 7 -2 7c-2 0 -3 -2 -3 -8c-1 -8 -3 -9 -5 -1c0 6 -2 10 -4 10c-1 0 -3 -1 -3 -1ZM1048 912c4 -3 4 -8 1 -11c-2 -3 -3 -3 -7 -3c-7 0 -10 6 -8 12c2 4 4 5 8 5c3 0 4 -1 6 -3ZM1086 932c-1 -1 0 -4 2 -8c2 -4 2 -5 1 -6c-2 -2 -2 -2 -6 3c-4 5 -7 6 -7 3c0 0 2 -3 4 -6c4 -3 5 -4 4 -5c-1 -1 -2 -1 -4 0c-5 2 -8 2 -9 0c0 -2 1 -3 7 -4c3 0 5 -1 5 -2c0 -1 -4 -3 -8 -3c-3 0 -5 -3 -3 -5c2 -2 2 -2 6 1c7 4 9 2 3 -4c-4 -4 -5 -7 -3 -9c2 -1 4 0 6 5c2 3 3 5 4 4c1 0 1 -5 0 -10c-1 -2 0 -3 1 -4c1 0 3 -1 3 0c2 0 2 1 2 8c0 3 1 4 2 4c1 0 2 -1 4 -7c1 -3 1 -4 3 -4c2 0 2 1 2 3c0 2 -1 4 -2 6c-4 5 -1 7 5 1c2 -2 4 -4 4 -4c0 0 1 1 2 2c1 1 0 2 -5 6c-2 1 -4 2 -4 3c0 1 5 1 9 0c3 -1 3 -1 4 0c3 2 1 4 -4 4c-3 1 -5 1 -6 1c-2 1 0 3 4 4c2 0 5 1 6 1c2 1 3 4 1 5c-1 2 -2 1 -6 -1c-3 -2 -6 -3 -6 -3c0 1 -1 3 0 4c0 1 1 3 3 4c4 3 5 5 3 7c-1 2 -3 0 -7 -5c-1 -2 -3 -4 -4 -4c-1 -1 -1 4 1 9c1 4 1 4 0 6c-2 2 -5 0 -5 -5c-1 -12 -3 -12 -5 -3c-1 4 -2 7 -2 8c-1 1 -4 1 -5 0ZM1098 914c5 -2 7 -7 5 -11c-1 -3 -3 -4 -7 -5c-3 -1 -4 0 -7 2c-5 5 -4 10 1 14c4 2 5 2 8 0ZM1139 931c0 -1 1 -5 2 -7c1 -3 2 -5 1 -6c-1 -1 -4 0 -6 4c-3 4 -6 5 -7 4c-1 -2 1 -6 5 -8c3 -2 4 -4 3 -5c-1 -1 -3 -1 -6 1c-6 2 -7 2 -7 -1c0 -2 3 -4 6 -4c0 1 2 1 3 0c2 0 3 0 3 -1c0 -2 -1 -2 -2 -3c-9 -2 -10 -2 -10 -4c0 -3 2 -3 7 -1c8 4 9 2 3 -4c-5 -5 -6 -8 -3 -9c2 -1 4 2 6 6c3 4 5 4 5 0c-1 -3 -1 -5 -1 -7c-1 -2 0 -3 1 -4c3 -2 5 1 5 7c0 4 0 6 1 6c1 0 2 -1 2 -3c1 -2 2 -4 2 -5c1 -2 2 -3 3 -3c2 0 3 0 3 2c0 1 -1 4 -3 6c-2 3 -2 3 -1 5c2 1 2 0 6 -4c3 -3 4 -4 5 -3c3 1 2 4 -3 7c-2 1 -4 3 -4 3c0 2 2 2 6 0c4 -1 5 -1 6 -1c4 2 2 5 -5 5c-4 1 -6 1 -6 2c0 2 2 2 7 3c3 0 5 1 6 1c1 1 0 5 -1 6c0 0 -3 0 -6 -2c-2 -1 -5 -2 -6 -1c-1 1 0 3 4 6c4 4 5 7 1 7c-1 1 -2 0 -5 -4c-3 -5 -5 -6 -6 -5c0 0 0 3 1 6c2 4 2 7 2 8c-2 5 -5 1 -6 -7c-1 -7 -3 -8 -4 0c-2 7 -3 9 -5 9c-2 0 -2 0 -2 -2ZM1152 914c4 -3 5 -8 3 -11c-1 -3 -4 -5 -8 -5c-4 0 -5 1 -7 5c-2 2 -2 4 -1 6c1 6 9 9 13 5ZM1191 930c0 -1 1 -4 2 -5c2 -4 3 -6 1 -7c-1 0 -3 1 -6 4c-4 5 -5 5 -6 4c-2 -2 -2 -2 3 -7c7 -7 6 -8 -1 -5c-5 2 -6 2 -7 1c-1 -2 -1 -2 0 -3c1 -1 3 -2 4 -2c4 0 8 -1 8 -3c0 -1 -2 -1 -6 -2c-6 -1 -8 -4 -6 -6c1 -1 2 -1 6 1c7 4 9 2 3 -4c-5 -6 -5 -10 0 -8c1 0 3 2 4 5c1 3 3 5 5 3c0 -1 -1 -4 -1 -6c-2 -6 -2 -6 0 -7c2 -2 2 -2 4 0c1 2 2 3 1 7c0 3 0 4 1 5c1 0 4 -5 4 -7c0 -1 1 -3 2 -4c2 -1 2 -1 3 0c2 2 2 2 -1 7c-1 4 -2 5 -1 6c1 1 2 0 5 -3c3 -3 4 -5 5 -4c1 0 2 0 2 0c0 0 1 1 1 2c0 0 -3 2 -5 4c-3 2 -5 4 -5 4c0 2 3 2 8 0c4 -2 4 -2 6 0c2 2 1 3 -6 4c-6 2 -7 4 -2 5c8 1 9 2 9 4c0 4 -1 4 -7 1c-4 -2 -5 -2 -6 -1c-1 1 -1 1 0 3c1 2 2 3 4 3c2 1 3 6 2 7c-2 2 -2 1 -4 -1c-5 -7 -6 -8 -7 -7c-2 0 -2 1 0 4c2 7 3 8 1 10c-2 1 -2 1 -3 0c-1 -1 -2 -4 -2 -7c-1 -9 -4 -9 -6 1c-1 6 -1 7 -3 7c-2 0 -3 0 -3 -3ZM1205 914c6 -4 4 -14 -3 -16c-3 -1 -3 0 -6 1c-6 4 -7 11 -1 15c3 2 6 2 10 0ZM1244 931c-1 -1 0 -3 2 -6c4 -8 1 -11 -5 -3c-3 3 -5 5 -6 4c-3 -1 -2 -2 3 -7c7 -7 6 -9 -2 -5c-5 2 -7 2 -7 0c0 -3 2 -4 7 -4c4 -1 5 -1 5 -3c0 -1 -1 -1 -4 -2c-2 -1 -4 -1 -5 -1c-1 0 -2 -1 -3 -2c-1 -2 -1 -2 1 -3c1 0 2 0 6 1c7 4 8 2 3 -4c-4 -4 -5 -8 -3 -9c1 -1 5 2 6 6c2 4 5 5 6 2c0 0 -1 -3 -2 -6c-1 -3 -1 -4 0 -6c2 -1 4 -1 5 1c1 0 1 3 1 6c-1 4 -1 5 1 5c2 0 4 -5 4 -8c0 -1 1 -3 2 -3c1 -1 2 -1 3 0c1 1 1 2 1 5c-1 1 -2 3 -3 4c-2 2 -2 4 1 4c0 0 2 -2 4 -3c2 -4 5 -5 7 -4c1 1 0 3 -7 8c-3 2 -3 2 -2 3c2 1 3 1 7 -1c2 -2 3 -2 5 -1c1 0 2 1 2 3c0 1 -1 2 -6 2c-5 1 -6 1 -6 3c0 2 1 2 8 2h5v4c0 3 -1 3 -3 3c-1 0 -4 -1 -6 -3c-2 -1 -3 -2 -4 -1c-2 2 -2 4 3 7c4 3 5 6 3 8c-2 1 -3 0 -3 -2c0 -1 -1 -2 -1 -2c-1 0 -3 -1 -4 -3c-2 -2 -3 -3 -4 -2c-1 0 -1 1 0 2c0 0 1 2 1 4c0 1 0 3 1 3c1 1 1 4 -1 5c-3 2 -5 -1 -5 -7c0 -4 0 -6 -1 -6c-1 -1 -2 -1 -2 2c-1 2 -2 5 -2 8c-1 3 -1 4 -3 4c-2 0 -3 0 -3 -2ZM1258 913c3 -3 4 -3 3 -7c0 -5 -3 -8 -8 -8c-4 0 -5 1 -7 3c-5 6 -1 15 7 15c1 0 3 -1 5 -3ZM1297 931c-1 -1 0 -3 2 -7c2 -4 2 -5 1 -6c-1 -1 -2 -1 -6 4c-4 4 -5 5 -6 4c-2 -1 -2 -2 0 -4c0 -1 2 -3 4 -5c5 -4 4 -7 -2 -4c-1 1 -3 2 -5 2c-2 0 -2 0 -2 -2c0 -2 1 -2 5 -3c4 -1 5 -1 5 -3c0 -1 -1 -2 -5 -2c-5 -1 -6 -2 -6 -5c0 -3 2 -3 6 0c8 4 10 2 3 -5c-3 -3 -4 -4 -4 -6c0 -2 1 -2 3 -2c2 0 3 0 4 3c1 4 3 7 5 6c2 -1 2 -3 0 -8c-1 -2 -1 -4 0 -5c0 -1 1 -2 2 -2c2 0 3 2 3 7c0 5 1 7 3 7c0 -1 1 -3 2 -6c2 -5 4 -7 6 -5c2 1 2 2 -1 7c-3 4 -3 5 -2 6c1 1 2 0 6 -4c3 -3 5 -5 5 -4c3 1 1 4 -3 7c-2 1 -4 3 -4 4c0 2 4 2 7 0c3 -2 6 -2 6 0c1 1 1 2 1 3c-1 0 -3 1 -6 1c-6 1 -6 1 -6 3c1 1 3 2 6 2c4 0 5 1 6 3c1 1 1 2 0 3c-1 1 -2 1 -7 -1c-4 -3 -5 -3 -6 -2c0 1 -1 2 -1 2c0 1 3 3 6 5c2 2 2 3 2 5c0 1 -1 2 -2 2c-1 0 -2 -1 -2 -3c0 -2 -1 -3 -2 -3c-1 -1 -3 -1 -4 -2c-1 -1 -1 -1 -2 0c0 0 0 3 1 5c2 5 2 8 0 9c-2 2 -5 -2 -5 -8c0 -3 0 -5 -1 -5c-1 -1 -4 2 -4 5c0 1 0 4 -1 6c0 2 -1 3 -3 3c-1 0 -2 -1 -2 -2ZM1311 913c3 -3 3 -4 3 -6c0 -7 -6 -11 -12 -8c-3 1 -6 4 -6 7c0 3 3 7 5 8c4 2 7 2 10 -1ZM1403 932c-2 0 -1 -4 1 -8c3 -4 3 -5 1 -7c-1 -1 -2 0 -6 4c-2 3 -5 5 -5 5c-3 0 -2 -4 3 -8c3 -4 4 -5 3 -6c-1 0 -2 0 -4 1c-2 1 -5 1 -6 2c-2 0 -3 0 -3 -2c0 -3 1 -3 8 -4c1 0 3 0 4 0c0 0 0 -1 0 -2c0 -2 -2 -3 -7 -3c-1 0 -3 -1 -4 -2c-2 -2 -2 -2 0 -3c1 -2 1 -2 6 1c3 1 5 2 6 1c1 -1 0 -2 -3 -5c-4 -5 -5 -8 -3 -9c1 -1 2 -1 3 1c2 2 3 4 4 5c1 2 2 3 3 3c1 -1 1 -2 1 -5c-1 -8 -1 -9 1 -10c3 0 4 2 4 8c0 2 0 4 0 5c2 1 4 -1 4 -4c1 -5 4 -8 6 -7c2 0 1 5 -2 9c-2 3 -2 5 0 5c1 0 3 -2 5 -5c3 -3 5 -4 6 -3c2 0 2 3 -1 5c-6 3 -7 5 -6 6c1 1 1 1 5 0c6 -3 7 -3 8 -1c1 2 -1 4 -6 4c-4 1 -5 1 -5 3c0 2 2 2 7 2c3 0 4 1 5 3c1 2 1 2 -1 3c-1 2 -2 1 -6 -1c-6 -3 -7 -3 -7 0c0 2 5 6 8 6l1 1c1 1 -2 7 -3 7c-1 0 -3 -3 -5 -5c-4 -5 -6 -6 -6 -3c-1 1 0 2 2 2c1 1 2 2 1 2c0 1 -1 2 0 5c0 3 0 3 -2 4c-3 1 -4 -1 -5 -7c0 -6 -1 -8 -2 -7c-1 0 -1 3 -2 7c-2 7 -3 9 -6 7ZM1416 913c2 -2 3 -3 3 -6c0 -5 -1 -7 -5 -9c-8 -4 -16 7 -9 14c3 3 6 4 11 1ZM88 931c-2 -1 -2 -3 1 -7c3 -5 4 -6 2 -8c0 0 -2 1 -6 4c-2 3 -5 5 -5 5c-1 0 -2 -1 -2 -2c-1 -1 -1 -2 4 -6c2 -3 5 -5 5 -6c0 -1 -1 -1 -7 2c-5 1 -9 1 -9 -1c0 0 2 -2 3 -4c3 -4 3 -4 5 -3c4 2 6 2 6 0c0 -1 -2 -2 -5 -2c-7 -1 -9 -2 -9 -5c1 -1 1 -2 5 -2c2 0 3 0 3 0c0 1 4 3 6 3c3 0 2 -1 -3 -6c-5 -6 -5 -8 0 -8c4 0 6 0 5 2c-1 1 1 7 4 7c1 0 2 -1 0 -6c-2 -5 -2 -7 0 -8c2 -1 3 -1 4 1c1 1 2 2 2 6c0 2 0 4 0 5c1 1 3 -1 4 -4c0 -4 3 -7 5 -7c2 1 2 4 0 8c-1 2 -2 4 -2 5c0 2 3 1 5 -3c3 -3 6 -5 7 -3c1 2 0 5 -4 7c-6 4 -4 6 2 3c4 -2 9 -1 8 2c0 1 -1 2 -5 3c-3 0 -6 1 -6 1c0 1 0 1 0 2c0 0 1 1 3 1c6 0 11 4 8 7c-1 1 -2 1 -6 -1c-3 -2 -5 -3 -6 -3c-2 0 0 4 3 7c4 4 5 7 2 8c-1 1 -1 0 -2 0c0 0 -2 -3 -4 -5c-2 -2 -4 -4 -4 -4c-1 0 -1 4 1 7c1 3 1 4 0 6c-3 5 -6 1 -6 -6c0 -5 -2 -7 -3 -6c0 0 -1 3 -1 6c-1 6 -3 9 -5 9c-1 0 -2 0 -3 -1ZM102 911c7 -4 4 -14 -4 -14c-6 0 -9 2 -9 8c0 3 1 5 3 6c3 2 6 3 10 0ZM141 931c-1 -2 0 -4 2 -8c2 -4 3 -6 1 -6c-1 0 -3 1 -6 4c-4 4 -7 5 -7 2c0 -1 2 -4 5 -6c6 -6 5 -7 -4 -4c-4 1 -4 1 -5 0c-2 -2 0 -4 6 -5c3 0 5 -1 5 -2c1 -2 1 -2 -5 -3c-5 0 -8 -3 -6 -5c1 -2 3 -2 8 1c3 1 5 2 5 1c0 0 -1 -2 -3 -4c-4 -5 -6 -8 -5 -9c2 -3 5 -1 8 4c3 6 7 3 4 -4c-2 -4 -1 -6 1 -6c3 -1 5 1 5 7c0 4 0 5 1 5c1 0 2 -2 3 -5c1 -5 2 -6 4 -6c3 1 3 3 1 7c-1 3 -2 5 -2 5c0 2 3 1 5 -2c1 -1 3 -3 4 -3c4 -3 5 2 1 5c-2 1 -4 2 -5 3c-2 1 -2 1 0 2c2 1 3 1 4 0c3 -2 6 -2 8 -1c3 2 0 5 -5 5c-3 0 -6 1 -6 3c0 0 2 1 5 1c5 1 9 3 8 5c-1 3 -3 3 -8 1c-3 -2 -5 -3 -6 -2c-1 1 2 5 5 7c2 2 3 2 3 5c-1 2 -1 2 -3 3c-1 0 -2 -1 -5 -5c-5 -8 -7 -6 -4 3c2 4 2 5 0 6c-3 3 -6 -1 -6 -8c0 -3 0 -4 -1 -4c-1 0 -2 1 -3 7c0 3 -1 5 -1 6c-2 2 -4 1 -6 0ZM156 912c1 -1 2 -3 3 -5c0 -2 0 -4 -1 -6c-2 -2 -3 -3 -4 -4c-2 -1 -7 0 -10 3c-2 2 -3 3 -2 6c1 6 3 7 9 8c1 0 3 -1 5 -2ZM194 931c-1 -2 -1 -3 2 -8c2 -4 2 -5 1 -6c-1 -1 -2 -1 -6 3c-3 4 -5 5 -6 5c-2 -1 -2 -1 0 -4c0 -1 3 -4 4 -5c3 -3 4 -5 2 -5c0 0 -2 1 -4 2c-6 1 -7 1 -7 -1c0 -2 0 -3 3 -3c2 -1 5 -2 6 -2c3 0 3 -3 1 -3c-4 0 -9 -2 -10 -3c-1 -1 -1 -2 0 -3c1 -2 3 -2 7 0c6 4 8 2 2 -4c-3 -2 -4 -4 -4 -6c0 -5 4 -4 8 3c2 3 2 4 4 3c1 -1 1 -2 0 -6c-2 -5 -1 -8 2 -8c2 0 3 2 3 7c0 3 1 5 1 6c1 1 4 -4 4 -6c0 -3 2 -5 4 -5c3 1 3 5 1 8c-5 6 -1 8 3 2c2 -2 4 -4 5 -4c4 0 3 4 -2 7c-2 1 -5 3 -5 4c0 1 3 1 6 0c5 -2 6 -2 8 -1c2 2 1 4 -5 5c-7 1 -8 3 -2 4c6 1 8 2 8 4c0 4 -2 4 -7 1c-4 -1 -5 -2 -6 -1c-1 1 0 4 4 7c3 2 4 3 3 5c0 2 -1 2 -2 3c-1 0 -3 -1 -5 -5c-2 -3 -4 -5 -4 -5c-2 0 -1 4 0 7c2 5 1 9 -2 8c-3 0 -4 -3 -4 -9c0 -3 0 -4 -1 -4c-1 0 -3 6 -3 10c0 3 -4 5 -7 3ZM206 913c2 -1 3 -2 4 -4c2 -4 2 -7 -1 -10c-3 -2 -3 -3 -7 -2c-6 1 -9 7 -7 12c2 3 5 5 8 5c0 0 2 -1 3 -1ZM247 931c-1 -1 -2 -2 -1 -4c1 -1 2 -3 3 -5c2 -2 2 -5 0 -6c-1 0 -2 1 -5 4c-4 5 -8 6 -8 3c0 -2 2 -4 6 -7c3 -2 5 -5 2 -5c0 0 -3 1 -6 2c-3 1 -5 1 -6 0c-2 -2 1 -4 6 -5c7 -1 7 -3 0 -5c-5 -1 -6 -2 -6 -3c-1 -3 3 -4 8 -2c3 2 4 2 5 1c1 0 0 -1 -3 -4c-3 -3 -5 -7 -4 -8c1 -2 4 -1 6 2c4 6 4 6 6 5c1 -1 1 -2 0 -3c0 -1 -1 -2 -1 -2c0 -1 0 -2 0 -3c-1 -2 0 -6 3 -6c2 0 3 4 3 8c0 6 2 6 4 -1c3 -6 5 -8 6 -4c1 2 1 3 -1 6c-1 2 -2 4 -2 5c0 2 4 1 5 -1c1 -3 4 -6 6 -5c1 0 2 1 2 2c0 2 -2 4 -6 6c-3 1 -4 3 -1 4c0 0 3 0 5 -2c3 -1 4 -1 5 0c1 0 2 1 2 2c0 1 -1 2 -10 4c-3 0 -2 2 1 3c1 0 4 1 5 1c2 0 3 1 4 2c1 1 0 5 -1 5c-1 0 -3 -1 -6 -2c-5 -3 -7 -3 -7 -1c0 0 2 3 4 5c4 3 5 4 4 6c-1 4 -3 3 -6 -1c-1 -2 -3 -5 -4 -5c-2 -2 -3 1 -1 7l2 5l-2 2l-2 1l-1 -2c-1 -1 -2 -3 -2 -6c0 -10 -3 -10 -5 0c-1 8 -2 10 -6 7ZM261 912c3 -3 4 -7 2 -11c-3 -5 -8 -6 -13 -2c-2 2 -3 3 -3 6c0 3 1 4 3 6c3 4 7 4 11 1ZM299 931c-1 -2 -1 -3 2 -8c2 -4 2 -6 0 -6c-1 0 -4 2 -6 4c-4 5 -4 5 -6 3c-1 -1 -1 -2 1 -4c1 -1 3 -3 4 -4c3 -2 4 -4 3 -5c-1 0 -3 0 -5 1c-6 2 -7 2 -8 1c-1 -3 3 -5 7 -5c3 0 6 -2 5 -4c0 0 -2 -1 -5 -1c-5 0 -6 -1 -6 -4c0 -2 2 -3 5 -1c3 1 7 2 7 1c0 -1 -1 -3 -3 -5c-3 -2 -4 -5 -4 -6c0 -5 4 -4 7 2c4 7 7 3 4 -5c-1 -2 -1 -2 0 -4c4 -4 7 -1 6 7c0 3 0 5 1 5c2 0 3 -2 4 -7c1 -5 4 -6 5 -4c2 2 1 4 -1 8c-1 2 -2 4 -2 4c0 1 0 1 1 1c2 0 5 -3 7 -7c2 -3 2 -3 4 -1c1 1 1 3 1 3c0 1 -2 3 -5 4c-2 2 -4 4 -3 4c0 1 4 2 4 0c0 0 1 -1 2 -2c2 -1 3 -1 5 0c1 1 2 3 2 4c0 1 -2 2 -6 3c-3 0 -5 1 -5 1c0 1 0 1 0 2c0 1 9 2 10 1c0 -2 3 -1 3 1c0 1 -1 1 -1 1c0 0 -1 1 0 2c0 4 -2 4 -8 1c-3 -1 -5 -2 -5 -2c-2 1 0 4 3 7c4 4 5 6 3 8c-2 1 -3 0 -7 -5c-3 -5 -6 -6 -5 -1c1 1 1 3 2 4c0 0 1 2 1 3c0 2 0 3 -1 5c-2 1 -2 1 -4 0c-1 -1 -1 -3 -2 -7c0 -10 -3 -10 -4 -1c-1 8 -4 11 -7 8ZM314 911c1 -1 2 -4 2 -5c0 -3 0 -4 -2 -6c-2 -3 -3 -3 -6 -3c-9 0 -12 13 -4 16c4 1 7 0 10 -2ZM353 931c-2 -1 -2 -3 0 -8c3 -5 3 -6 1 -7c-1 0 -3 1 -6 5c-3 3 -5 5 -6 4c-2 -1 -1 -4 3 -8c2 -2 4 -4 4 -5c0 -1 0 -2 0 -2c0 0 -3 1 -6 2c-5 2 -7 2 -7 -1c0 -2 2 -3 7 -3c3 -1 5 -1 5 -2c0 -1 -1 -2 -5 -3c-5 -1 -7 -3 -6 -5c1 -2 3 -2 8 0c4 3 4 3 4 1c0 -1 -1 -4 -3 -6c-5 -4 -5 -8 -2 -8c2 0 3 1 5 5c2 3 4 5 4 5c1 -1 1 -6 0 -10c-1 -3 2 -6 5 -5c1 1 1 2 1 7c1 7 3 7 5 1c2 -7 4 -9 6 -5c1 1 1 2 0 5c-1 2 -2 4 -3 4c0 0 0 1 0 2c0 2 3 1 5 -2c2 -4 5 -5 7 -3c1 1 1 1 0 3c-1 1 -3 3 -5 3c-3 2 -4 4 -2 5c0 0 3 -1 5 -2c4 -1 5 -1 6 0c3 1 2 4 -1 4c-3 0 -9 2 -9 3c0 1 1 1 7 2c3 1 4 1 5 3c1 2 1 2 0 4c-2 1 -2 1 -7 -1c-4 -2 -5 -3 -6 -2c-2 1 0 4 4 6c3 2 4 3 3 5c0 1 -1 2 -2 3c-1 1 -2 0 -4 -3c-2 -2 -3 -5 -3 -5c-1 -1 -1 -1 -2 -1c-2 0 -2 3 0 7c2 5 1 8 -1 8c-3 0 -4 -2 -4 -7c0 -5 -1 -7 -2 -7c-1 0 -3 8 -4 11c0 3 -2 4 -4 3ZM364 912c5 -3 6 -9 2 -14c-2 -2 -9 -2 -12 1c-2 2 -2 3 -2 6c0 3 0 4 3 6c3 3 5 4 9 1ZM404 931c-1 -1 -1 -3 1 -8c4 -9 3 -10 -4 -3c-3 3 -5 5 -6 5c-4 0 -1 -7 4 -10c3 -2 4 -4 2 -4c-1 0 -3 1 -6 2c-4 1 -4 1 -6 -1c-1 -1 -1 -1 1 -3c2 -1 4 -1 6 -1c3 0 4 -1 5 -2c1 -2 0 -2 -5 -3c-5 0 -8 -3 -7 -5c1 -2 4 -2 8 0c2 1 4 2 4 2c2 0 1 -2 -3 -6c-2 -3 -3 -4 -3 -6c0 -4 3 -4 7 1c1 3 3 5 4 5c1 -1 1 -2 0 -8c0 -3 0 -4 1 -5c1 -1 2 -2 3 -1c2 1 2 2 2 7c0 2 0 5 1 6c1 0 3 -4 4 -8c0 -2 1 -3 2 -3c4 -2 5 2 2 7c-3 7 -1 8 4 2c4 -4 7 -4 7 -1c0 2 -1 2 -3 4c-8 4 -7 7 1 4c5 -2 5 -2 6 0c3 2 1 4 -4 5c-3 0 -5 0 -6 1c-2 0 0 2 5 3c6 1 7 1 7 4c0 2 -1 3 -1 3c-1 1 -4 0 -7 -2c-4 -2 -5 -2 -6 -1c-1 1 0 2 3 5c3 2 4 4 4 6c0 4 -3 5 -5 1c0 -1 -2 -3 -3 -5c-2 -2 -3 -2 -4 -2c0 1 0 3 1 5c1 3 1 6 1 7c0 3 0 3 -2 3c-3 0 -4 -2 -4 -9c0 -5 0 -5 -2 -5c-1 0 -2 2 -2 6c-2 8 -4 11 -7 8ZM419 910c3 -3 3 -8 0 -11c-2 -2 -3 -2 -6 -2c-4 0 -5 0 -7 2c-4 5 -2 11 3 14c4 1 7 1 10 -3ZM456 931c-1 -2 1 -7 4 -11c1 -2 0 -4 -2 -4c0 0 -3 2 -5 4c-2 3 -4 5 -5 5c-4 0 -1 -7 4 -10c3 -1 4 -3 2 -4c0 0 -3 0 -5 1c-5 2 -8 2 -8 0c0 -3 3 -4 11 -4c1 0 1 -1 1 -2c0 -2 -3 -3 -8 -3c-2 0 -4 -2 -4 -4c0 -2 4 -2 8 0c3 1 5 1 5 0c1 0 0 -2 -3 -4c-2 -3 -3 -5 -3 -7c0 -2 0 -3 1 -3c1 0 4 3 6 7c1 2 2 3 3 3c2 -1 2 -3 1 -9c-1 -2 -1 -3 0 -4c0 -1 1 -2 2 -2c3 0 4 3 4 7c-1 4 0 5 0 5c2 1 3 -1 4 -5c1 -3 2 -5 4 -5c3 0 3 3 1 8c-2 2 -3 4 -3 5c0 2 3 1 5 -2c4 -5 6 -6 8 -4c1 1 1 1 -2 4c-1 1 -4 3 -4 3c-1 1 -2 1 -2 2c0 1 1 1 3 1c2 0 5 -1 7 -1c3 0 3 0 3 2c0 2 -1 2 -9 4c-1 0 -2 1 -2 1c0 2 2 3 6 3c6 0 7 2 4 5c-2 1 -2 1 -6 -1c-3 -2 -6 -2 -6 0c0 1 2 3 5 6c4 4 4 4 3 6c-1 1 -2 2 -3 2c-1 0 -2 -3 -4 -5c-2 -4 -4 -5 -5 -5c-1 0 -1 4 0 6c1 0 1 2 2 4c0 4 0 4 -1 5c-3 1 -5 -1 -5 -7c-1 -4 -1 -7 -2 -7c-1 -1 -3 3 -3 7c0 3 0 5 -2 6c-2 3 -4 3 -5 1ZM470 912c7 -4 4 -15 -4 -15c-3 0 -4 0 -7 3c-3 2 -3 3 -3 6c1 6 8 10 14 6ZM509 931c-1 -1 -1 -2 1 -7c1 -2 2 -5 2 -6c0 -3 -3 -1 -7 3c-1 2 -4 4 -5 4c-3 0 -1 -4 3 -8c4 -4 5 -5 4 -6c-1 0 -3 0 -6 2c-5 2 -5 2 -6 0c-2 -1 -2 -1 0 -3c1 -1 2 -2 4 -2c3 0 7 -1 7 -2c0 -1 -3 -2 -5 -2c-5 -1 -7 -2 -7 -5c0 -2 2 -2 8 0c2 1 5 1 5 1c1 0 -1 -3 -3 -5c-5 -5 -6 -9 -2 -9c2 0 3 1 5 4c3 5 5 6 5 2c0 -1 0 -4 -1 -5c-1 -5 2 -9 5 -6c1 1 1 4 1 7c0 7 2 7 4 1c2 -7 5 -9 7 -5c0 2 0 3 -2 6c-4 7 0 8 4 2c2 -3 3 -4 5 -4c2 0 2 1 2 2c0 2 -2 4 -8 7c-1 1 -1 1 0 2c1 1 1 1 4 0c5 -2 7 -2 9 0c1 2 1 3 -6 4c-7 2 -6 4 0 5c5 0 6 1 6 4c0 3 -2 3 -7 1c-3 -2 -5 -2 -6 -2c-1 1 1 5 3 6c3 2 6 6 5 8c-2 2 -4 1 -7 -4c-2 -3 -5 -5 -5 -5c-2 0 -1 5 1 8c1 4 1 5 -1 7c-1 1 -1 1 -3 -1c-1 -1 -2 -3 -2 -7c-1 -6 -1 -6 -3 -6c0 0 -1 3 -1 6c-1 3 -1 6 -2 7c-1 3 -4 3 -5 1ZM524 911c1 -1 2 -3 2 -5c0 -5 -1 -6 -4 -8c-5 -3 -13 1 -13 7c0 3 0 4 2 6c3 3 4 3 7 3c2 -1 5 -2 6 -3ZM562 931c-2 -2 -1 -4 2 -9c4 -7 0 -7 -6 -1c-3 3 -5 4 -6 4c-2 -1 0 -4 4 -8c3 -3 4 -4 3 -5c-1 -1 -2 -1 -5 0c-5 2 -7 2 -8 0c0 -2 2 -3 7 -4c5 0 5 0 5 -2c0 -1 0 -2 -4 -2c-3 0 -5 -1 -6 -3c-4 -3 1 -5 7 -2c3 2 4 2 5 1c0 -1 -1 -3 -4 -5c-4 -4 -4 -7 -2 -9c1 -1 2 0 7 7c1 1 2 2 3 2c1 -1 1 -6 0 -7c0 -1 -1 -3 0 -4c0 -3 0 -3 2 -4c3 0 4 3 4 8c0 2 0 4 0 5c1 2 3 -1 4 -5c1 -3 3 -7 5 -7c0 0 1 1 2 2c0 1 0 3 -2 7c-2 3 -3 5 -3 5c0 1 1 1 2 1c1 0 3 -2 4 -4c4 -4 6 -5 7 -2c1 1 1 1 1 2c0 0 -2 2 -5 3c-4 3 -5 4 -4 5c0 0 2 0 6 -1c5 -2 7 -2 7 1c0 2 -1 3 -7 3c-3 1 -4 1 -3 3c0 1 1 1 4 2c6 1 7 2 7 5c0 3 -2 2 -7 0c-3 -2 -5 -3 -6 -3c0 0 0 1 0 3c0 1 1 3 3 5c3 2 4 3 4 5c-1 4 -4 3 -7 -2c-2 -3 -4 -5 -4 -5c-2 0 -1 6 0 7c1 1 1 1 1 0c0 0 0 -1 1 -1c1 0 1 0 0 1c-1 1 -1 2 -1 3c0 4 -1 5 -3 5c-2 0 -3 -3 -3 -8c0 -4 -2 -7 -3 -6c0 0 -1 3 -2 7c-1 3 -1 6 -2 7c-1 2 -3 1 -4 0ZM574 913c2 -1 5 -5 5 -8c0 -1 -1 -3 -2 -4c-1 -3 -2 -4 -4 -4c-4 -1 -8 1 -10 4c-2 3 -2 8 1 11c2 2 7 3 10 1ZM666 931c0 -1 1 -4 2 -7c1 -2 2 -5 2 -6c0 -3 -3 -1 -7 3c-4 4 -6 5 -7 2c-1 -1 4 -6 8 -8c1 -2 2 -2 1 -3c-1 -1 -2 -1 -7 1c-5 2 -5 2 -6 0c-1 -2 1 -4 7 -5c3 0 4 0 4 -2c1 -2 0 -2 -2 -2c-4 0 -9 -2 -10 -3c-1 -4 3 -4 9 -1c3 1 4 1 5 0c1 0 0 -1 -2 -4c-2 -2 -4 -4 -5 -6c-1 -1 -1 -2 1 -3c1 -2 1 -2 4 1c1 2 2 4 2 5c0 0 1 1 2 2c2 1 3 -1 3 -5c-2 -6 -2 -7 0 -8c1 -1 2 -2 3 -1c1 1 2 2 2 7c0 3 1 5 1 6c1 0 3 -4 3 -6c0 -2 4 -6 5 -6c2 1 2 5 -1 9c-2 3 -2 4 -1 5c1 1 2 0 5 -3c3 -3 5 -5 6 -4c3 1 2 3 -3 6c-2 2 -4 3 -4 4c0 2 2 2 6 0c5 -2 6 -2 7 0c2 2 0 4 -6 5c-4 0 -6 1 -6 1c0 2 5 3 9 3c3 0 4 2 4 5c0 2 -2 2 -7 0c-2 -1 -4 -2 -5 -2c-3 0 -2 4 3 7c4 4 5 6 2 8c-1 1 -1 1 -3 -1c-1 -1 -3 -3 -4 -5c-1 -2 -3 -4 -3 -4c-2 0 -2 2 -1 6c2 6 2 9 0 9c-3 1 -5 -1 -5 -8c0 -9 -3 -8 -4 2c-1 3 -1 6 -2 6c0 2 -4 1 -5 0ZM680 912c4 -3 5 -8 2 -12c-2 -2 -6 -3 -10 -2c-5 2 -7 7 -4 12c2 5 8 6 12 2ZM719 930c-1 -1 0 -3 2 -6c2 -5 2 -7 0 -7c-1 0 -4 2 -6 4c-4 4 -5 5 -6 4c-1 -1 1 -4 5 -9c3 -2 4 -3 3 -4c-1 -1 -2 -1 -6 1c-4 1 -7 1 -7 -1c0 -2 2 -3 7 -3c2 -1 5 -1 5 -2c1 -1 -1 -3 -4 -3c-1 0 -3 -1 -5 -1c-2 -1 -3 -2 -3 -3c0 -3 4 -3 7 -1c7 4 9 1 3 -4c-4 -4 -5 -8 -3 -9c1 -1 6 3 6 5c0 1 3 5 4 5c2 0 2 -3 0 -7c-1 -4 -1 -5 0 -7c1 -2 2 -2 4 -1c2 1 2 3 2 7c0 3 0 5 1 6c1 0 2 -1 2 -2c0 -1 1 -2 1 -3c1 -1 1 -2 1 -3c0 -4 5 -5 6 -2c0 2 0 3 -2 6c-1 2 -2 4 -2 5c0 2 3 1 6 -3c3 -3 6 -5 7 -3c1 2 -1 4 -6 7c-3 2 -4 3 -3 4c1 0 3 0 6 -1c5 -2 6 -2 7 0c2 2 0 3 -5 4c-3 1 -5 2 -5 2c-1 2 3 3 7 3c2 0 3 1 4 3c2 4 -1 5 -8 1c-3 -1 -4 -2 -5 -1c-1 1 1 5 4 7c1 0 2 2 3 3c1 1 1 2 0 3c-1 3 -3 2 -7 -4c-2 -2 -4 -4 -4 -4c-2 0 -2 2 0 7c2 5 2 7 0 8c-1 1 -2 1 -3 0c-1 -1 -2 -3 -2 -8c-1 -9 -3 -9 -4 1c-1 3 -2 6 -2 7c-2 2 -5 1 -5 -1ZM733 912c7 -5 1 -17 -7 -15c-1 0 -3 2 -5 3c-2 1 -2 3 -2 6c0 3 0 4 2 6c4 2 9 3 12 0ZM823 931c-1 -2 2 -7 4 -11c1 -1 1 -2 -1 -3c-1 -1 -2 -1 -6 4c-3 3 -5 5 -6 4c-2 -1 -1 -3 4 -8c4 -3 4 -4 4 -5c-1 -1 -2 -1 -4 0c-3 2 -8 3 -9 2c-1 -1 0 -4 1 -5c1 0 4 -1 6 -1c4 0 4 0 4 -1c0 -2 0 -2 -3 -3c-7 -1 -8 -1 -8 -4c0 -3 3 -3 7 -1c2 1 4 2 4 2c3 0 1 -3 -2 -6c-3 -2 -4 -4 -4 -6c0 -5 5 -4 8 3c1 2 2 4 3 4c1 -1 1 -2 1 -10c-1 -4 2 -6 4 -4c1 1 1 3 1 7c0 4 1 5 2 5c1 0 2 -2 3 -5c1 -5 3 -8 5 -7c2 1 2 4 -1 8c-4 7 -1 8 4 2c3 -3 5 -4 6 -3c2 0 2 3 -1 5c-6 4 -7 5 -6 6c1 1 2 1 6 -1c5 -2 5 -2 7 0c1 2 0 3 -6 4c-7 2 -7 4 -1 5c6 1 7 2 8 4c0 4 -2 4 -8 1c-4 -2 -5 -3 -6 -1c-1 1 -1 2 3 4c2 2 4 4 4 4c2 2 1 5 -1 6c-2 0 -3 -1 -5 -5c-2 -3 -4 -5 -5 -5c-1 0 -1 6 1 9c1 3 1 4 0 5c-1 2 -3 3 -4 1c0 -1 -1 -4 -2 -7c0 -4 0 -7 -1 -7c-1 -1 -3 2 -3 7c0 3 -1 6 -2 7c-1 2 -4 2 -5 0ZM836 913c3 -1 4 -3 4 -8c0 -4 -3 -7 -7 -7c-4 0 -8 2 -9 4c-2 5 1 11 5 12c4 1 4 1 7 -1ZM1455 932c-1 -2 0 -5 2 -9c2 -3 2 -4 1 -5c0 -1 -1 -1 -2 -1c0 0 -2 2 -5 4c-4 5 -6 6 -6 3c0 -3 2 -5 7 -9c2 -2 2 -2 1 -3c-1 -1 -2 -1 -5 0c-6 3 -7 3 -7 0c0 -2 0 -2 9 -4c3 -1 3 -3 0 -4c-8 -1 -10 -2 -10 -4c0 -3 3 -3 8 -1c3 2 4 2 5 1c1 -1 0 -2 -3 -5c-4 -3 -5 -7 -4 -9c2 -1 4 0 7 5c2 4 4 5 5 3c0 -3 -1 -5 -2 -8c0 -2 0 -3 1 -4c2 -2 2 -2 4 -1c1 2 2 3 2 6c-1 5 0 8 2 6c1 -1 2 -2 2 -3c0 -3 2 -7 3 -7c2 -1 4 1 4 3c0 0 -1 3 -2 5c-3 3 -3 5 -1 5c1 0 3 -2 5 -4c4 -5 6 -5 7 -3c1 2 -1 4 -5 6c-2 1 -4 3 -4 3c-1 2 3 3 6 1c4 -2 7 -2 7 1c1 2 0 2 -5 3c-4 1 -5 1 -5 3c0 1 2 1 5 2c6 1 7 2 7 4c0 3 -2 3 -8 1c-2 -2 -5 -3 -5 -2c-2 1 -1 4 3 6c2 2 4 3 4 4c1 2 0 5 -2 5c-2 0 -4 -2 -7 -6c-4 -7 -6 -4 -2 4c1 4 1 6 -1 7c-3 1 -4 -2 -5 -7c0 -3 0 -6 -1 -7c-1 -1 -3 2 -3 6c0 4 -2 9 -4 9c-1 0 -2 0 -3 0ZM1470 911c3 -3 3 -7 1 -11c-3 -3 -6 -4 -11 -2c-4 1 -5 3 -5 8c0 7 9 11 15 5ZM1508 931c-2 -1 -2 -2 1 -8c3 -4 3 -6 2 -6c-1 -1 -3 0 -7 4c-3 4 -5 5 -7 3c-1 -1 3 -5 6 -8c1 -1 3 -3 3 -4c0 -2 -2 -2 -5 -1c-3 3 -6 3 -8 2c-2 -2 1 -5 6 -5c4 0 7 -2 5 -3c0 -1 -2 -1 -5 -2c-4 0 -7 -2 -7 -4c0 -2 3 -2 7 -1c8 4 9 2 4 -3c-5 -5 -5 -7 -3 -9c1 -1 2 -1 4 2c2 3 4 5 4 6c0 0 0 1 1 1c1 -1 2 -1 2 -4c-1 -2 -1 -4 -2 -6c-1 -2 0 -5 3 -5c3 0 4 3 3 8c0 3 0 4 1 5c2 0 3 -1 4 -6c0 -2 1 -4 2 -5c2 -1 2 -1 3 0c2 2 2 3 0 8c-3 3 -3 4 -1 4c1 1 2 0 5 -3c2 -2 4 -4 5 -3c2 0 2 3 -1 5c-5 4 -7 5 -6 6c1 1 2 1 6 0c5 -3 6 -3 7 -1c2 2 0 3 -6 5c-6 1 -7 3 -1 4c2 0 5 1 6 1c2 0 2 1 2 3c0 2 0 3 -1 3c-2 0 -4 -1 -6 -2c-2 -1 -4 -2 -5 -2c-3 0 -1 4 3 7c4 4 5 7 2 8c-2 0 -3 -1 -6 -5c-4 -5 -6 -6 -5 -1c0 1 1 4 2 5c1 4 1 7 -2 7c-2 0 -3 -1 -4 -8c0 -3 -1 -6 -1 -6c0 0 -1 0 -2 0c-1 0 -1 2 -1 4c0 6 -2 11 -5 11c0 0 -1 0 -2 -1ZM1520 913c4 -2 5 -4 5 -8c0 -5 -4 -8 -8 -8c-6 0 -9 3 -9 7c0 4 2 7 4 9c3 1 5 1 8 0ZM1561 930c-1 -2 -1 -3 1 -7c2 -3 3 -6 3 -7c-2 -1 -4 0 -8 4c-4 4 -5 5 -6 4c-2 -2 0 -5 4 -8c3 -2 5 -4 5 -4c0 -2 -3 -2 -6 0c-2 0 -5 1 -6 1c-2 0 -2 0 -2 -2c0 -2 1 -2 10 -4c3 -1 2 -3 -3 -4c-6 -1 -8 -2 -8 -4c0 -3 3 -3 8 -1c4 2 5 2 6 1c1 0 0 -2 -3 -4c-5 -5 -6 -7 -4 -9c1 -2 3 -1 6 4c1 2 3 3 4 3c1 0 2 0 1 -3c0 -2 0 -4 -1 -5c-1 -2 1 -6 3 -6c2 0 3 1 3 8c0 3 1 5 2 5c1 0 2 -1 3 -5c1 -4 2 -6 4 -6c3 0 3 3 0 8c-2 4 -2 6 0 6c0 0 3 -2 5 -5c4 -4 4 -4 5 -2c2 2 1 3 -3 6c-4 3 -5 3 -3 4c1 2 2 2 5 0c4 -2 7 -2 8 0c1 2 -1 3 -5 4c-5 1 -8 2 -7 3c0 1 2 2 5 2c3 0 5 0 6 1c2 2 2 3 1 5c-1 1 -1 1 -5 -1c-7 -3 -8 -3 -9 -1c0 1 1 2 4 5c5 5 6 7 4 9c-1 0 -2 0 -4 -2c-1 -1 -3 -4 -4 -5c-1 -2 -3 -3 -4 -3c-1 0 -1 1 0 3c0 2 1 5 2 6c1 2 1 3 0 5c-1 1 -1 2 -2 2c-2 0 -3 -3 -4 -8c-1 -10 -4 -10 -5 -1c0 3 0 6 -1 7c-1 3 -4 3 -5 1ZM1575 910c2 -1 3 -3 3 -6c0 -4 -3 -7 -8 -8c-3 0 -4 0 -7 2c-2 2 -2 3 -2 6c0 3 0 5 2 6c1 2 3 3 4 3c2 1 6 0 8 -3ZM1613 929c0 -1 0 -3 2 -7c3 -5 3 -5 1 -6c-1 -1 -2 -1 -5 3c-5 5 -8 6 -8 3c0 -1 2 -4 4 -6c4 -4 6 -7 4 -7c-1 0 -3 1 -5 2c-5 2 -7 2 -8 1c-1 -3 2 -4 7 -5c3 0 5 -1 5 -2c1 -1 -2 -3 -6 -3c-3 0 -7 -3 -6 -5c1 -2 3 -2 8 1c2 1 4 1 5 1c2 0 1 -2 -3 -6c-2 -2 -4 -4 -4 -6c0 -5 4 -4 8 3c2 4 4 5 4 3c1 -1 0 -4 -1 -10c-1 -2 0 -3 1 -4c3 -1 5 1 5 6c0 3 1 6 1 6c1 2 3 -1 4 -4c0 -4 2 -6 4 -6c3 0 3 3 1 7c-2 3 -3 5 -3 5c0 1 0 1 1 1c1 0 4 -2 6 -4c2 -2 4 -4 5 -3c3 1 2 3 -2 6c-7 5 -6 7 2 4c4 -2 4 -2 6 0c1 1 1 2 0 3c-1 0 -4 1 -6 2c-4 0 -5 1 -5 2c0 1 1 2 5 2c5 1 8 2 8 5c0 0 -1 1 -2 2c-1 1 -2 0 -6 -1c-7 -4 -9 -1 -3 4c2 1 5 3 5 4c1 2 -2 5 -4 4c0 0 -2 -2 -4 -5c-2 -2 -4 -4 -5 -4c-1 1 -1 4 1 8c2 3 1 6 -1 6c-3 0 -4 -1 -4 -7c0 -3 -1 -6 -1 -6c-1 -2 -3 1 -3 5c0 8 -5 13 -8 8ZM1628 910c2 -2 3 -3 3 -6c0 -5 -3 -8 -8 -8c-5 0 -10 3 -10 7c0 4 2 7 5 8c3 3 7 2 10 -1ZM1667 930c-1 -1 -1 -4 2 -9c2 -4 2 -6 0 -6c-1 0 -4 2 -6 4c-2 3 -5 5 -5 5c-3 -1 -2 -4 3 -8c4 -4 4 -5 4 -6c-1 -1 -3 0 -6 1c-6 2 -7 2 -7 -1c0 -2 3 -3 7 -3c2 0 4 -1 4 -2c1 -2 0 -2 -5 -3c-5 -1 -6 -2 -6 -4c0 -2 2 -2 6 -1c8 4 9 2 3 -4c-4 -5 -5 -8 -1 -8c1 0 2 1 4 4c2 3 4 5 4 5c0 0 1 -1 2 -1c1 -1 1 -2 0 -2c-1 -1 -1 -2 -1 -2c1 -1 0 -3 0 -4c-1 -2 -1 -3 0 -4c2 -5 6 -1 5 5c0 4 1 6 2 6c1 0 2 -2 3 -5c1 -5 3 -8 5 -6c2 2 2 3 -1 8c-1 2 -2 4 -2 4c2 2 4 1 7 -3c2 -3 4 -4 5 -3c3 1 2 3 -2 6c-5 2 -6 4 -5 5c1 0 3 0 6 -1c5 -1 6 -1 7 0c2 2 0 4 -6 5c-4 0 -5 1 -5 2c0 1 1 2 6 2c4 1 5 1 6 3c1 1 1 2 0 3c0 2 -4 1 -8 -1c-7 -4 -8 1 -1 5c4 3 5 6 3 8c-2 1 -4 0 -7 -5c-3 -4 -4 -5 -5 -4c-1 1 -1 2 1 6c2 6 2 8 -1 9c-2 1 -4 -2 -4 -6c0 -8 -3 -11 -4 -5c-2 10 -2 12 -4 12c-1 0 -2 0 -3 -1ZM1681 911c4 -4 3 -12 -2 -15c-3 -2 -7 -1 -10 2c-4 4 -3 10 2 13c2 2 8 2 10 0ZM1720 929c-1 -3 -1 -5 1 -8c5 -7 2 -8 -5 -2c-3 3 -5 5 -6 5c-2 -2 -1 -5 4 -8c7 -6 6 -8 -3 -5c-5 2 -7 1 -6 -1c0 -1 1 -2 4 -3c5 -1 7 -2 7 -3c0 -1 -1 -2 -4 -2c-7 -1 -9 -3 -7 -6c1 -1 2 -1 6 1c8 3 9 2 3 -4c-4 -5 -5 -6 -3 -8c1 -1 1 -1 2 -1c2 1 6 6 6 8c1 2 4 0 4 -2c0 -1 -1 -3 -2 -5c-1 -3 -1 -4 0 -5c3 -5 7 -1 6 6c0 4 0 5 2 5c1 0 2 -1 3 -5c1 -5 3 -7 6 -5c2 2 2 2 -2 7c-2 4 -2 6 -1 6c1 0 3 -2 5 -4c2 -3 5 -4 5 -4c1 0 2 0 2 1c1 2 1 4 -1 4c-1 0 -7 5 -7 6c0 1 3 2 6 0c4 -2 7 -1 7 1c0 2 -1 2 -9 4c-1 0 -2 1 -2 2c0 1 2 1 5 2c6 1 8 2 8 4c0 3 -3 3 -8 1c-8 -4 -10 -1 -3 4c5 4 6 6 4 8c-2 2 -4 0 -8 -5c-4 -6 -6 -3 -3 4c2 5 2 7 -1 7c-3 0 -4 -1 -4 -8c-1 -3 -1 -6 -1 -6c-2 -1 -3 1 -4 7c0 3 -1 6 -1 7c-1 2 -5 2 -5 0ZM1734 910c2 -2 2 -3 2 -6c0 -4 0 -5 -2 -7c-2 -2 -3 -2 -6 -2c-2 0 -5 2 -6 3c-4 3 -4 7 0 11c2 3 3 3 6 3c3 0 4 0 6 -2ZM1774 929c-2 -1 -1 -3 1 -8c2 -5 2 -5 1 -6c-2 -1 -2 -1 -6 3c-5 5 -7 6 -7 3c0 -1 2 -4 5 -6c3 -4 4 -5 3 -5c-1 -1 -4 0 -6 1c-6 2 -7 1 -7 -1c0 -2 2 -3 6 -3c3 0 6 -2 6 -4c0 0 -1 -1 -4 -1c-7 -1 -8 -2 -8 -4c0 -2 1 -2 3 -2c1 0 3 0 5 1c6 2 7 1 2 -4c-2 -2 -3 -4 -4 -6c0 -5 3 -4 7 1c5 7 6 6 4 -2c-1 -6 -1 -6 1 -7c1 -1 2 -1 3 -1c2 1 2 2 2 6c0 7 0 7 1 7c1 0 2 -2 3 -5c2 -5 3 -7 5 -7c3 0 2 4 0 9c-2 3 -2 5 -2 5c1 1 2 0 5 -3c5 -5 7 -5 8 -2c0 1 -1 2 -4 4c-5 3 -6 6 -4 6c1 0 4 -1 6 -2c5 -1 5 -1 6 0c3 2 1 4 -5 5c-2 0 -4 1 -5 1c-2 1 0 3 4 3c6 1 8 2 8 5c0 2 -1 2 -3 2c-1 0 -4 -1 -5 -2c-7 -4 -8 0 -2 5c3 3 4 4 4 6c-1 5 -5 2 -11 -7c0 -1 -1 -1 -2 0c-1 1 0 3 2 8c2 4 1 7 -1 7c-3 1 -4 -1 -5 -9c-1 -7 -2 -7 -4 1c-1 8 -3 11 -6 8ZM1785 911c5 -3 6 -7 4 -12c-2 -3 -3 -4 -8 -4c-4 0 -7 3 -8 8c0 3 0 4 3 6c3 3 6 4 9 2ZM1826 928c-1 -2 -1 -3 1 -7c2 -5 3 -7 0 -7c0 0 -3 2 -5 5c-4 4 -5 4 -6 3c-2 -1 0 -4 5 -8c3 -3 3 -4 2 -5c-1 -1 -1 -1 -3 0c-5 2 -8 3 -9 2c-2 -3 0 -5 8 -6c2 0 3 -1 3 -2c0 -1 -1 -2 -5 -2c-4 -1 -7 -2 -6 -5c0 -2 3 -2 8 1c6 3 7 0 1 -5c-2 -3 -3 -4 -3 -6c0 -2 0 -3 1 -3c2 0 4 2 6 6c2 4 4 4 4 0c0 -1 0 -3 -1 -5c-2 -5 4 -9 6 -5c1 1 1 4 1 6c0 4 0 5 1 5c1 0 2 -1 2 -4c2 -6 3 -7 6 -7c1 0 2 1 2 3c0 1 -1 3 -2 5c-1 2 -2 4 -2 4c0 2 3 1 5 -2c2 -2 4 -4 6 -4c2 0 2 0 2 2c0 2 -1 3 -5 5c-2 2 -4 3 -4 4c0 1 2 1 6 0c5 -2 7 -3 8 -1c3 3 0 5 -7 6c-3 0 -5 1 -5 1c-1 1 3 3 7 3c4 0 7 2 7 5c0 2 -3 2 -9 0c-3 -2 -6 -2 -6 -2c-1 1 1 5 4 7c6 3 7 8 2 8c-2 0 -3 -1 -6 -5c-3 -3 -4 -5 -5 -4c-1 1 0 5 2 9c1 2 2 3 1 4c-3 4 -7 0 -7 -7c0 -2 -1 -4 -1 -5c-2 -3 -3 0 -4 6c0 3 -1 7 -1 7c-1 2 -4 2 -5 0ZM1839 909c2 -1 3 -3 4 -4c0 -3 -2 -8 -4 -10c-4 -2 -8 -1 -11 2c-3 3 -3 7 0 11c3 4 7 4 11 1ZM596 909c0 -1 1 -1 1 -1c0 1 0 2 0 2c0 0 -1 0 -1 -1ZM590 906c0 -1 0 -1 1 -1c0 0 1 0 1 1c0 0 0 1 -1 1c-1 0 -1 -1 -1 -1ZM1122 876h1c1 0 1 0 2 0c0 1 -1 1 -2 1c0 0 -1 0 -1 -1Z"/>
</svg>
