<svg xmlns="http://www.w3.org/2000/svg" viewBox="0 -1900 1928 2048" role="img" aria-label="Heart-shaped leaf terminal, 18 point">
<title>Heart-shaped leaf terminal, 18 point</title>
<metadata>Copyright (c) 2026 Harold Lehmann; MIT. Historical source: https://archive.org/details/specimenbookfrom00unse/page/259/mode/1up</metadata>
<path fill="currentColor" transform="scale(1,-1)" d="M1245 1696C1245 1669 1299 1652 1383 1652C1489 1652 1653 1561 1712 1469C1741 1427 1770 1358 1776 1315C1806 1161 1678 1023 1543 1058L1485 1075L1543 1092C1610 1111 1660 1165 1662 1221C1662 1271 1570 1361 1516 1361C1493 1361 1449 1338 1420 1306C1374 1263 1368 1242 1378 1177C1399 1069 1493 986 1597 986C1662 986 1691 1000 1751 1061C1881 1194 1876 1383 1743 1536C1639 1654 1508 1715 1360 1715C1297 1715 1245 1706 1245 1696ZM943 1621C856 1577 741 1496 660 1419C443 1213 285 1081 178 1019C122 988 74 952 68 942C56 923 174 840 212 840C222 840 210 863 183 892C128 948 128 948 201 986C281 1027 437 1150 541 1256C666 1381 931 1565 1053 1611C1153 1648 1193 1694 1126 1694C1106 1694 1024 1661 943 1621ZM1031 1421C964 1388 903 1344 897 1325C887 1302 914 1263 987 1200C1114 1088 1303 954 1366 936C1433 913 1426 965 1349 1038C1266 1117 1218 1225 1203 1358C1197 1421 1185 1475 1172 1477C1162 1481 1097 1456 1031 1421ZM518 1025 428 942 497 867C608 754 624 750 747 806C808 836 920 869 999 883C1076 898 1141 917 1141 927C1141 936 1122 944 1099 944C1045 944 772 1040 712 1079C685 1096 651 1111 637 1111C622 1111 568 1071 518 1025ZM1235 806C1081 744 903 613 895 556C891 525 920 494 1003 436C1118 356 1162 352 1162 419C1162 483 1258 663 1326 725C1364 761 1403 804 1414 825C1443 875 1389 871 1235 806ZM331 729C466 598 789 315 860 265C993 173 1108 129 1272 106C1428 88 1453 90 1562 129C1699 183 1816 302 1837 413C1853 496 1835 629 1801 673C1749 740 1653 798 1595 798C1503 798 1391 679 1391 583C1391 446 1510 363 1622 423C1695 463 1660 644 1576 654C1566 656 1549 658 1539 661C1497 667 1495 692 1535 704C1614 729 1703 694 1747 625C1806 527 1797 425 1726 325C1647 215 1539 167 1356 156C1220 148 1191 154 1064 213C935 275 753 396 651 492C545 592 270 819 256 819C247 819 281 779 331 729Z"/>
</svg>
